# Blender 4.0.2
# www.blender.org
mtllib 철문.mtl
o Cube.026
v -6.457924 -1.336941 10.526506
v -6.457924 7.516951 10.526506
v 7.776218 -1.336941 10.526506
v 7.776218 7.516951 10.526506
v -6.457924 -0.404952 10.526506
v -6.457924 0.527036 10.526506
v -6.457924 1.459025 10.526506
v -6.457924 2.391014 10.526506
v -6.457924 3.323002 10.526506
v -6.457924 4.254991 10.526506
v -6.457924 5.186979 10.526506
v -6.457924 6.118968 10.526506
v -6.457924 7.050956 10.526506
v 7.776218 7.050956 10.526506
v 7.776218 6.118968 10.526506
v 7.776218 5.186979 10.526506
v 7.776218 4.254991 10.526506
v 7.776218 3.323002 10.526506
v 7.776218 2.391014 10.526506
v 7.776218 1.459025 10.526506
v 7.776218 0.527036 10.526506
v 7.776218 -0.404952 10.526506
v -6.452849 -1.401446 10.693736
v -6.452746 -1.366354 10.697119
v -6.452689 -1.392816 10.698999
v -6.452849 -0.469457 10.693736
v -6.452746 -0.434366 10.697119
v -6.452689 -0.460828 10.698999
v -6.452849 0.462531 10.693736
v -6.452746 0.497623 10.697119
v -6.452689 0.471161 10.698999
v -6.452849 1.394520 10.693736
v -6.452746 1.429611 10.697119
v -6.452689 1.403150 10.698999
v -6.452849 2.326508 10.693736
v -6.452746 2.361600 10.697119
v -6.452689 2.335138 10.698999
v -6.452849 3.258497 10.693736
v -6.452746 3.293588 10.697119
v -6.452689 3.267127 10.698999
v -6.452849 4.190485 10.693736
v -6.452746 4.225577 10.697119
v -6.452689 4.199115 10.698999
v -6.452849 5.122474 10.693736
v -6.452746 5.157566 10.697119
v -6.452689 5.131104 10.698999
v -6.452849 6.054463 10.693736
v -6.452746 6.089554 10.697119
v -6.452689 6.063092 10.698999
v 7.781396 6.089554 10.697119
v 7.781293 6.054463 10.693736
v 7.781454 6.063092 10.698999
v 7.781396 5.157565 10.697119
v 7.781293 5.122474 10.693736
v 7.781454 5.131104 10.698999
v 7.781396 4.225576 10.697119
v 7.781293 4.190485 10.693736
v 7.781454 4.199115 10.698999
v 7.781396 3.293588 10.697119
v 7.781293 3.258497 10.693736
v 7.781454 3.267126 10.698999
v 7.781396 2.361599 10.697119
v 7.781293 2.326509 10.693736
v 7.781454 2.335138 10.698999
v 7.781396 1.429611 10.697119
v 7.781293 1.394520 10.693736
v 7.781454 1.403150 10.698999
v 7.781396 0.497622 10.697119
v 7.781293 0.462531 10.693736
v 7.781454 0.471161 10.698999
v 7.781396 -0.434366 10.697119
v 7.781293 -0.469457 10.693736
v 7.781454 -0.460828 10.698999
v 7.781396 -1.366355 10.697119
v 7.781293 -1.401446 10.693736
v 7.781454 -1.392816 10.698999
vn -0.0000 -0.0000 1.0000
vn -0.0000 0.1747 0.9846
vn -0.0000 -0.9330 -0.3599
vn -0.0000 0.0709 0.9975
vn -0.0000 -0.5207 0.8537
vt 0.993173 0.854902
vt 0.993173 0.887010
vt 0.012429 0.887009
vt 0.012429 0.854902
vt 0.993493 0.128149
vt 0.993137 0.195425
vt 0.012393 0.195425
vt 0.012750 0.128149
vt 0.993486 0.207775
vt 0.012742 0.207775
vt 0.993498 0.210583
vt 0.993141 0.277860
vt 0.012397 0.277860
vt 0.012754 0.210583
vt 0.993491 0.290209
vt 0.012747 0.290209
vt 0.993502 0.293018
vt 0.993146 0.360294
vt 0.012402 0.360294
vt 0.012759 0.293018
vt 0.993495 0.372644
vt 0.012751 0.372644
vt 0.993507 0.375453
vt 0.993150 0.442729
vt 0.012406 0.442729
vt 0.012763 0.375452
vt 0.993500 0.455079
vt 0.012756 0.455079
vt 0.993511 0.457887
vt 0.993155 0.525164
vt 0.012411 0.525163
vt 0.012768 0.457887
vt 0.993504 0.537513
vt 0.012760 0.537513
vt 0.993516 0.540322
vt 0.993159 0.607598
vt 0.012415 0.607598
vt 0.012772 0.540322
vt 0.993509 0.619948
vt 0.012765 0.619948
vt 0.993520 0.622757
vt 0.993163 0.690033
vt 0.012420 0.690033
vt 0.012777 0.622756
vt 0.993513 0.702383
vt 0.012769 0.702382
vt 0.993525 0.705191
vt 0.993168 0.772468
vt 0.012424 0.772467
vt 0.012781 0.705191
vt 0.993518 0.784817
vt 0.012774 0.784817
vt 0.993529 0.787626
vt 0.012786 0.787626
vt 0.012754 0.126321
vt 0.993497 0.126321
vt 0.012738 0.125340
vt 0.993482 0.125340
vt 0.012758 0.208755
vt 0.993502 0.208756
vt 0.012763 0.291190
vt 0.993506 0.291190
vt 0.012767 0.373625
vt 0.993511 0.373625
vt 0.012771 0.456059
vt 0.993515 0.456059
vt 0.012776 0.538494
vt 0.993520 0.538494
vt 0.012781 0.620929
vt 0.993524 0.620929
vt 0.012785 0.703363
vt 0.993529 0.703363
vt 0.012789 0.785798
vt 0.993533 0.785798
vt 0.993132 0.112990
vt 0.012388 0.112990
s 0
f 14/1/1 4/2/1 2/3/1 13/4/1
f 74/5/2 22/6/2 5/7/2 24/8/2
f 22/6/3 72/9/3 26/10/3 5/7/3
f 71/11/2 21/12/2 6/13/2 27/14/2
f 21/12/3 69/15/3 29/16/3 6/13/3
f 68/17/2 20/18/2 7/19/2 30/20/2
f 20/18/3 66/21/3 32/22/3 7/19/3
f 65/23/2 19/24/2 8/25/2 33/26/2
f 19/24/3 63/27/3 35/28/3 8/25/3
f 62/29/2 18/30/2 9/31/2 36/32/2
f 18/30/3 60/33/3 38/34/3 9/31/3
f 59/35/2 17/36/2 10/37/2 39/38/2
f 17/36/3 57/39/3 41/40/3 10/37/3
f 56/41/2 16/42/2 11/43/2 42/44/2
f 16/42/3 54/45/3 44/46/3 11/43/3
f 53/47/2 15/48/2 12/49/2 45/50/2
f 15/48/3 51/51/3 47/52/3 12/49/3
f 50/53/2 14/1/2 13/4/2 48/54/2
f 74/5/4 24/8/4 25/55/4 76/56/4
f 76/56/5 25/55/5 23/57/5 75/58/5
f 71/11/4 27/14/4 28/59/4 73/60/4
f 73/60/5 28/59/5 26/10/5 72/9/5
f 68/17/4 30/20/4 31/61/4 70/62/4
f 70/62/5 31/61/5 29/16/5 69/15/5
f 65/23/4 33/26/4 34/63/4 67/64/4
f 67/64/5 34/63/5 32/22/5 66/21/5
f 62/29/4 36/32/4 37/65/4 64/66/4
f 64/66/5 37/65/5 35/28/5 63/27/5
f 59/35/4 39/38/4 40/67/4 61/68/4
f 61/68/5 40/67/5 38/34/5 60/33/5
f 56/41/4 42/44/4 43/69/4 58/70/4
f 58/70/5 43/69/5 41/40/5 57/39/5
f 53/47/4 45/50/4 46/71/4 55/72/4
f 55/72/5 46/71/5 44/46/5 54/45/5
f 50/53/4 48/54/4 49/73/4 52/74/4
f 52/74/5 49/73/5 47/52/5 51/51/5
f 3/75/3 75/58/3 23/57/3 1/76/3
